<svg xmlns="http://www.w3.org/2000/svg" viewBox="0 0 512 512" role="img" aria-label="Garça Branca">
  <rect width="512" height="512" rx="108" fill="#216a45"/>
  <path fill="#fff" d="M344 116c-44 4-76 24-94 59-15 28-20 63-13 104l-68 94c-8 11-6 26 5 34 11 8 26 6 34-5l73-101c6-8 8-18 5-27-9-32-7-58 4-78 10-18 27-29 52-32l-22 27c-9 10-7 26 3 35 11 8 26 7 35-4l51-62c7-9 8-21 2-31-5-10-16-15-27-14l-40 1Z"/>
  <circle cx="341" cy="150" r="8" fill="#216a45"/>
  <path fill="#fff" d="M260 278c-41 8-75 4-103-13-12-7-27-3-34 8-7 12-3 27 8 34 31 19 68 27 108 24l21-53Z"/>
</svg>
